
<svg xmlns="http://www.w3.org/2000/svg" width="512" height="512" viewBox="0 0 512 512"><rect width="100%" height="100%" fill="#DDDDDD"/><path fill="#999999" d="M141.84 230.4h8.53v52.06h-4.96q-1.16 0-1.93-.38t-1.49-1.28l-27.18-34.7q.21 2.38.21 4.39v31.97h-8.53V230.4h5.08q.61 0 1.06.06.45.05.79.21.34.17.67.47.32.31.72.81l27.28 34.85q-.1-1.26-.18-2.48-.07-1.23-.07-2.27V230.4Zm35.07 14.55q4.1 0 7.47 1.33 3.36 1.33 5.76 3.78 2.39 2.45 3.69 5.98 1.29 3.52 1.29 7.88 0 4.39-1.29 7.92-1.3 3.53-3.69 6.01-2.4 2.49-5.76 3.82-3.37 1.33-7.47 1.33-4.14 0-7.53-1.33-3.38-1.33-5.78-3.82-2.39-2.48-3.7-6.01-1.32-3.53-1.32-7.92 0-4.36 1.32-7.88 1.31-3.53 3.7-5.98 2.4-2.45 5.78-3.78 3.39-1.33 7.53-1.33Zm0 31.21q4.6 0 6.82-3.1 2.21-3.09 2.21-9.07 0-5.97-2.21-9.11-2.22-3.13-6.82-3.13-4.68 0-6.93 3.15t-2.25 9.09q0 5.94 2.25 9.06 2.25 3.11 6.93 3.11Zm51.4 6.3h-8.89v-36.94h5.44q1.73 0 2.27 1.62l.57 2.74q.97-1.08 2.04-1.98 1.06-.9 2.26-1.55 1.21-.65 2.6-1.02 1.38-.38 3.04-.38 3.49 0 5.74 1.89t3.37 5.02q.86-1.84 2.16-3.15 1.29-1.31 2.84-2.14 1.55-.83 3.29-1.23 1.75-.39 3.51-.39 3.06 0 5.44.93 2.38.94 4 2.74 1.62 1.8 2.46 4.39.85 2.59.85 5.94v23.51h-8.89v-23.51q0-3.53-1.55-5.31-1.55-1.78-4.54-1.78-1.37 0-2.54.47t-2.05 1.35q-.88.88-1.38 2.21-.51 1.33-.51 3.06v23.51h-8.93v-23.51q0-3.71-1.49-5.4-1.49-1.69-4.37-1.69-1.95 0-3.62.95-1.68.96-3.12 2.61v27.04Zm58.43-22.72h16.78q0-1.72-.49-3.25-.48-1.53-1.46-2.69-.97-1.15-2.46-1.81-1.5-.67-3.48-.67-3.85 0-6.06 2.2-2.22 2.19-2.83 6.22Zm22.68 5.37h-22.86q.22 2.84 1.01 4.91.79 2.07 2.09 3.42 1.29 1.35 3.08 2.02 1.78.66 3.94.66t3.72-.5q1.57-.5 2.74-1.12 1.17-.61 2.05-1.11.88-.51 1.71-.51 1.12 0 1.66.83l2.55 3.24q-1.47 1.73-3.31 2.9-1.83 1.17-3.83 1.87-2 .7-4.07.99-2.07.29-4.01.29-3.86 0-7.17-1.28t-5.76-3.78q-2.45-2.5-3.85-6.19-1.4-3.69-1.4-8.55 0-3.78 1.22-7.11 1.22-3.33 3.51-5.8 2.29-2.46 5.58-3.9t7.43-1.44q3.5 0 6.45 1.11 2.95 1.12 5.07 3.26 2.13 2.14 3.33 5.26 1.21 3.11 1.21 7.11 0 2.01-.43 2.72-.43.7-1.66.7Zm31.93 6.41v-16.56q-1.51-1.84-3.29-2.6-1.78-.75-3.83-.75-2.02 0-3.64.75-1.62.76-2.77 2.29t-1.77 3.89q-.61 2.36-.61 5.56 0 3.24.52 5.49.53 2.25 1.5 3.67t2.37 2.05q1.41.63 3.14.63 2.77 0 4.71-1.15 1.95-1.15 3.67-3.27Zm0-42.56h8.9v53.5h-5.44q-1.76 0-2.23-1.62l-.76-3.56q-2.23 2.55-5.13 4.14-2.9 1.58-6.75 1.58-3.02 0-5.54-1.26t-4.34-3.65q-1.82-2.4-2.81-5.93-.99-3.52-.99-8.06 0-4.1 1.12-7.63 1.11-3.53 3.2-6.12 2.09-2.59 5.01-4.05 2.91-1.46 6.55-1.46 3.09 0 5.29.97t3.92 2.63v-19.48Zm17.97 16.56h8.93v36.94h-8.93v-36.94Zm10.15-10.76q0 1.15-.47 2.16-.47 1.01-1.24 1.76-.77.76-1.82 1.21-1.04.45-2.23.45-1.15 0-2.18-.45-1.02-.45-1.78-1.21-.76-.75-1.21-1.76-.45-1.01-.45-2.16 0-1.19.45-2.23.45-1.05 1.21-1.8.76-.76 1.78-1.21 1.03-.45 2.18-.45 1.19 0 2.23.45 1.05.45 1.82 1.21.77.75 1.24 1.8.47 1.04.47 2.23Zm27.36 38.16v-6.23q-3.85.18-6.48.67-2.63.48-4.21 1.24-1.59.76-2.27 1.76-.68 1.01-.68 2.2 0 2.34 1.38 3.35 1.39 1.01 3.62 1.01 2.74 0 4.73-.99 2-.99 3.91-3.01Zm-18.79-19.4-1.59-2.85q6.38-5.83 15.34-5.83 3.24 0 5.8 1.06 2.55 1.06 4.32 2.95 1.76 1.89 2.68 4.52.92 2.63.92 5.76v23.33h-4.04q-1.26 0-1.94-.38-.68-.38-1.08-1.53l-.79-2.66q-1.41 1.26-2.74 2.21-1.33.96-2.77 1.6-1.44.65-3.08.99-1.64.35-3.62.35-2.34 0-4.32-.63-1.98-.63-3.42-1.89-1.44-1.26-2.23-3.14-.79-1.87-.79-4.35 0-1.41.47-2.79.47-1.39 1.53-2.65t2.75-2.37q1.69-1.12 4.16-1.95 2.47-.83 5.74-1.35 3.28-.52 7.49-.63v-2.16q0-3.71-1.58-5.49-1.59-1.78-4.58-1.78-2.16 0-3.58.5-1.42.51-2.5 1.14-1.08.63-1.96 1.13-.88.51-1.96.51-.94 0-1.59-.49-.65-.49-1.04-1.13Z"/></svg>